<svg viewBox="0 0 1200 540" xmlns="http://www.w3.org/2000/svg" font-family="Inter,system-ui,sans-serif">
<rect width="1200" height="540" fill="#FAFAF8"/>
<rect width="1200" height="4" fill="#C4552A"/>
<!-- Header -->
<rect x="0" y="4" width="1200" height="76" fill="#fff" stroke="#E5E3DC" stroke-width="1"/>
<text x="40" y="30" fill="#C4552A" font-size="9" font-weight="700" letter-spacing="0.1em">CASE STUDY · HVAC / HOME SERVICES · SOUTH DELHI</text>
<text x="40" y="58" fill="#1A1916" font-size="20" font-weight="800">Kumar HVAC &amp; Plumbing — From #8 to #2 in 8 Weeks</text>
<text x="40" y="72" fill="#9C9790" font-size="10">Sep – Nov 2024 · Google Maps Local SEO</text>
<rect x="970" y="20" width="192" height="44" rx="4" fill="#FBF2EE" stroke="#C4552A"/>
<text x="1066" y="38" fill="#C4552A" font-size="9" font-weight="700" letter-spacing="0.07em" text-anchor="middle">TIMELINE</text>
<text x="1066" y="56" fill="#C4552A" font-size="13" font-weight="800" text-anchor="middle">8 Weeks → Top 3</text>
<!-- Metrics strip -->
<rect x="0" y="80" width="1200" height="108" fill="#F5F4F0" stroke="#E5E3DC" stroke-width="1"/>
<text x="40" y="104" fill="#9C9790" font-size="9" font-weight="700" letter-spacing="0.09em">KEY RESULTS</text>
<!-- M1 -->
<text x="40" y="138" fill="#9C9790" font-size="10">Maps Rank</text>
<text x="40" y="170" fill="#1A1916" font-size="28" font-weight="900">#8</text>
<text x="88" y="163" fill="#9C9790" font-size="18">→</text>
<text x="114" y="170" fill="#C4552A" font-size="28" font-weight="900">#2</text>
<line x1="196" y1="98" x2="196" y2="180" stroke="#E5E3DC"/>
<!-- M2 -->
<text x="214" y="138" fill="#9C9790" font-size="10">Monthly Leads</text>
<text x="214" y="170" fill="#1A1916" font-size="28" font-weight="900">5</text>
<text x="240" y="163" fill="#9C9790" font-size="18">→</text>
<text x="266" y="170" fill="#C4552A" font-size="28" font-weight="900">22/mo</text>
<line x1="410" y1="98" x2="410" y2="180" stroke="#E5E3DC"/>
<!-- M3 -->
<text x="428" y="138" fill="#9C9790" font-size="10">Reviews</text>
<text x="428" y="170" fill="#1A1916" font-size="28" font-weight="900">11</text>
<text x="468" y="163" fill="#9C9790" font-size="18">→</text>
<text x="494" y="170" fill="#C4552A" font-size="28" font-weight="900">58</text>
<line x1="570" y1="98" x2="570" y2="180" stroke="#E5E3DC"/>
<!-- M4 -->
<text x="588" y="138" fill="#9C9790" font-size="10">GBP Score</text>
<text x="588" y="170" fill="#1A1916" font-size="28" font-weight="900">38%</text>
<text x="652" y="163" fill="#9C9790" font-size="18">→</text>
<text x="678" y="170" fill="#15803D" font-size="28" font-weight="900">97%</text>
<line x1="790" y1="98" x2="790" y2="180" stroke="#E5E3DC"/>
<!-- M5 -->
<text x="808" y="138" fill="#9C9790" font-size="10">Revenue Impact</text>
<text x="808" y="170" fill="#1A1916" font-size="28" font-weight="900">+₹3.2L</text>
<line x1="1010" y1="98" x2="1010" y2="180" stroke="#E5E3DC"/>
<!-- M6 -->
<text x="1028" y="138" fill="#9C9790" font-size="10">Citations Fixed</text>
<text x="1028" y="170" fill="#1A1916" font-size="28" font-weight="900">23 → 0</text>
<!-- Lead volume chart -->
<rect x="40" y="206" width="640" height="220" rx="6" fill="#fff" stroke="#E5E3DC"/>
<text x="60" y="232" fill="#1A1916" font-size="13" font-weight="700">Lead Volume Growth — Weeks 0 to 8</text>
<!-- Y labels -->
<text x="76" y="272" fill="#9C9790" font-size="9" text-anchor="end">20</text>
<text x="76" y="302" fill="#9C9790" font-size="9" text-anchor="end">15</text>
<text x="76" y="332" fill="#9C9790" font-size="9" text-anchor="end">10</text>
<text x="76" y="362" fill="#9C9790" font-size="9" text-anchor="end">5</text>
<text x="76" y="392" fill="#9C9790" font-size="9" text-anchor="end">0</text>
<!-- Grid lines -->
<line x1="84" y1="268" x2="654" y2="268" stroke="#F5F4F0"/>
<line x1="84" y1="298" x2="654" y2="298" stroke="#F5F4F0"/>
<line x1="84" y1="328" x2="654" y2="328" stroke="#F5F4F0"/>
<line x1="84" y1="358" x2="654" y2="358" stroke="#F5F4F0"/>
<line x1="84" y1="388" x2="654" y2="388" stroke="#E5E3DC"/>
<!-- Area + line: 0→8 weeks, values 1,1,2,3,5,8,13,18,22 mapped to y -->
<!-- y_base=388, scale=(388-268)/22=5.45 per unit -->
<!-- x: W0=100 W1=170 W2=240 W3=310 W4=380 W5=450 W6=520 W7=590 W8=650 -->
<!-- y vals: 1→382,1→382,2→377,3→371,5→361,8→345,13→317,18→289,22→268 -->
<path d="M100,382 170,382 240,377 310,371 380,361 450,345 520,317 590,289 650,268 650,388 100,388 Z" fill="#C4552A" fill-opacity="0.08"/>
<polyline points="100,382 170,382 240,377 310,371 380,361 450,345 520,317 590,289 650,268" stroke="#C4552A" stroke-width="2.5" fill="none" stroke-linecap="round" stroke-linejoin="round"/>
<circle cx="100" cy="382" r="3" fill="#9C9790"/>
<circle cx="650" cy="268" r="5" fill="#C4552A"/>
<!-- End label -->
<rect x="656" y="261" width="38" height="16" rx="3" fill="#C4552A"/>
<text x="675" y="273" fill="#fff" font-size="9" font-weight="700" text-anchor="middle">22</text>
<!-- Milestone line -->
<line x1="380" y1="256" x2="380" y2="388" stroke="#E5E3DC" stroke-dasharray="3,2"/>
<text x="383" y="264" fill="#9C9790" font-size="8">Wk 4 — first movement</text>
<!-- Week labels -->
<text x="100" y="404" fill="#9C9790" font-size="9" text-anchor="middle">Wk 0</text>
<text x="170" y="404" fill="#9C9790" font-size="9" text-anchor="middle">Wk 1</text>
<text x="240" y="404" fill="#9C9790" font-size="9" text-anchor="middle">Wk 2</text>
<text x="310" y="404" fill="#9C9790" font-size="9" text-anchor="middle">Wk 3</text>
<text x="380" y="404" fill="#9C9790" font-size="9" text-anchor="middle">Wk 4</text>
<text x="450" y="404" fill="#9C9790" font-size="9" text-anchor="middle">Wk 5</text>
<text x="520" y="404" fill="#9C9790" font-size="9" text-anchor="middle">Wk 6</text>
<text x="590" y="404" fill="#9C9790" font-size="9" text-anchor="middle">Wk 7</text>
<text x="650" y="404" fill="#9C9790" font-size="9" text-anchor="middle">Wk 8</text>
<!-- What we did panel -->
<rect x="700" y="206" width="460" height="220" rx="6" fill="#fff" stroke="#E5E3DC"/>
<text x="720" y="232" fill="#1A1916" font-size="13" font-weight="700">What Crossfire Did</text>
<rect x="720" y="244" width="420" height="24" rx="3" fill="#F5F4F0"/>
<text x="730" y="260" fill="#5C5852" font-size="10">GBP Audit — 14 critical missing fields identified and fixed</text>
<rect x="720" y="274" width="420" height="24" rx="3" fill="#F5F4F0"/>
<text x="730" y="290" fill="#5C5852" font-size="10">Citation Cleanup — 23 errors across 38 directories resolved</text>
<rect x="720" y="304" width="420" height="24" rx="3" fill="#F5F4F0"/>
<text x="730" y="320" fill="#5C5852" font-size="10">Review System — automated sequence: 4–6 new reviews/week</text>
<rect x="720" y="334" width="420" height="24" rx="3" fill="#F5F4F0"/>
<text x="730" y="350" fill="#5C5852" font-size="10">Keyword Strategy — 6 high-intent terms competitors missed</text>
<rect x="720" y="364" width="420" height="24" rx="3" fill="#F5F4F0"/>
<text x="730" y="380" fill="#5C5852" font-size="10">Photo Strategy — 28 optimised images, metadata + alt text</text>
<rect x="720" y="394" width="420" height="24" rx="3" fill="#F5F4F0"/>
<text x="730" y="410" fill="#5C5852" font-size="10">Competitor Monitoring — monthly threat tracking</text>
<!-- Bottom quote + timeline -->
<rect x="40" y="440" width="640" height="84" rx="6" fill="#FBF2EE" stroke="#C4552A"/>
<rect x="40" y="440" width="3" height="84" fill="#C4552A"/>
<text x="56" y="466" fill="#1A1916" font-size="11" font-style="italic">"Sumedha found problems I didn't even know existed and fixed them in weeks.</text>
<text x="56" y="482" fill="#1A1916" font-size="11" font-style="italic">Our phone hasn't stopped ringing."</text>
<text x="56" y="506" fill="#C4552A" font-size="10" font-weight="700">— Manoj J., Owner · Kumar HVAC &amp; Plumbing</text>
<!-- Timeline strip -->
<rect x="700" y="440" width="460" height="84" rx="6" fill="#fff" stroke="#E5E3DC"/>
<text x="720" y="462" fill="#1A1916" font-size="11" font-weight="700">Ranking Timeline</text>
<line x1="740" y1="490" x2="1130" y2="490" stroke="#E5E3DC" stroke-width="2"/>
<circle cx="740" cy="490" r="5" fill="#9C9790"/>
<text x="740" y="483" fill="#9C9790" font-size="9" text-anchor="middle">Start</text>
<text x="740" y="508" fill="#9C9790" font-size="9" text-anchor="middle">#8</text>
<circle cx="868" cy="490" r="4" fill="#D4D1C9"/>
<text x="868" y="483" fill="#9C9790" font-size="9" text-anchor="middle">Wk 4</text>
<text x="868" y="508" fill="#9C9790" font-size="9" text-anchor="middle">First Δ</text>
<circle cx="996" cy="490" r="5" fill="#C4552A" fill-opacity="0.6"/>
<text x="996" y="483" fill="#C4552A" font-size="9" text-anchor="middle">Wk 8</text>
<text x="996" y="508" fill="#C4552A" font-size="9" text-anchor="middle">Top 3</text>
<circle cx="1130" cy="490" r="6" fill="#C4552A"/>
<text x="1130" y="483" fill="#C4552A" font-size="9" font-weight="700" text-anchor="middle">Mo 4</text>
<text x="1130" y="508" fill="#C4552A" font-size="9" font-weight="700" text-anchor="middle">#1</text>
<line x1="740" y1="490" x2="1130" y2="490" stroke="#C4552A" stroke-width="1.5" fill-opacity="0.4"/>
</svg>
